# xmcd
#
# Track frame offsets:
#	150
#	17101
#	31024
#	47137
#	63374
#	77877
#	92287
#	111383
#	126121
#	140912
#	158267
#	175030
#
# Disc length: 2519 seconds
#
# Revision: 1
# Processed by: cddbd v1.5.2PL0 Copyright (c) Steve Scherf et al.
# Submitted via: audiograbber 1.83.01
#
DISCID=9109d50c
DTITLE=Zane Lewis - Zane Lewis
DYEAR=2008
DGENRE=Country
TTITLE0=Welcome To The Southland
TTITLE1=She's Got It Goin' On
TTITLE2=Come With Me
TTITLE3=Everything I Want
TTITLE4=Leavin'
TTITLE5=This'll Be A Memory
TTITLE6=Fly
TTITLE7=Off The Record
TTITLE8=A Helluva Time
TTITLE9=Becky Brown's Daddy
TTITLE10=Bad Ass Country Band
TTITLE11=Even A Leaf
EXTD=
EXTT0=
EXTT1=
EXTT2=
EXTT3=
EXTT4=
EXTT5=
EXTT6=
EXTT7=
EXTT8=
EXTT9=
EXTT10=
EXTT11=
PLAYORDER=
